<svg xmlns="http://www.w3.org/2000/svg" xmlns:xlink="http://www.w3.org/1999/xlink" contentStyleType="text/css" data-diagram-type="CLASS" height="856px" preserveAspectRatio="none" style="width:1894px;height:856px;background:#FFFFFF;" version="1.1" viewBox="0 0 1894 856" width="1894px" zoomAndPan="magnify"><title>Class Diagram</title><defs/><g><g class="title" data-source-line="3"><text fill="#000000" font-family="sans-serif" font-size="14" font-weight="bold" lengthAdjust="spacing" textLength="112.8887" x="883.9736" y="22.9951">Class Diagram</text></g><!--class DGS Administrator--><g class="entity" data-entity="DGS Administrator" data-source-line="9" data-uid="ent0002" id="entity_DGS Administrator"><rect fill="#F1F1F1" height="34.2969" rx="2.5" ry="2.5" style="stroke:#181818;stroke-width:0.5;" width="136.6484" x="862.4282" y="331.3769"/><text fill="#000000" font-family="sans-serif" font-size="14" lengthAdjust="spacing" textLength="130.6484" x="865.4282" y="349.372">DGS Administrator</text><line style="stroke:#181818;stroke-width:0.5;" x1="863.4282" x2="998.0766" y1="357.6737" y2="357.6737"/></g><!--class SNS User--><g class="entity" data-entity="SNS User" data-source-line="12" data-uid="ent0003" id="entity_SNS User"><rect fill="#F1F1F1" height="164.6719" rx="2.5" ry="2.5" style="stroke:#181818;stroke-width:0.5;" width="162.4111" x="288.5382" y="266.1969"/><text fill="#000000" font-family="sans-serif" font-size="14" lengthAdjust="spacing" textLength="64.6064" x="337.4405" y="284.192">SNS User</text><line style="stroke:#181818;stroke-width:0.5;" x1="289.5382" x2="449.9493" y1="292.4938" y2="292.4938"/><text fill="#000000" font-family="sans-serif" font-size="14" lengthAdjust="spacing" textLength="90.1523" x="294.5382" y="309.4889">-sns_number</text><text fill="#000000" font-family="sans-serif" font-size="14" lengthAdjust="spacing" textLength="44.7549" x="294.5382" y="325.7857">-name</text><text fill="#000000" font-family="sans-serif" font-size="14" lengthAdjust="spacing" textLength="76.5146" x="294.5382" y="342.0826">-birth_date</text><text fill="#000000" font-family="sans-serif" font-size="14" lengthAdjust="spacing" textLength="29.2441" x="294.5382" y="358.3795">-sex</text><text fill="#000000" font-family="sans-serif" font-size="14" lengthAdjust="spacing" textLength="110.0654" x="294.5382" y="374.6764">-postal_address</text><text fill="#000000" font-family="sans-serif" font-size="14" lengthAdjust="spacing" textLength="110.5029" x="294.5382" y="390.9732">-phone_number</text><text fill="#000000" font-family="sans-serif" font-size="14" lengthAdjust="spacing" textLength="43.6611" x="294.5382" y="407.2701">-email</text><text fill="#000000" font-family="sans-serif" font-size="14" lengthAdjust="spacing" textLength="150.4111" x="294.5382" y="423.567">-citizen_card_number</text></g><!--class Employee--><g class="entity" data-entity="Employee" data-source-line="23" data-uid="ent0004" id="entity_Employee"><rect fill="#F1F1F1" height="115.7813" rx="2.5" ry="2.5" style="stroke:#181818;stroke-width:0.5;" width="122.5029" x="439.4982" y="507.8669"/><text fill="#000000" font-family="sans-serif" font-size="14" lengthAdjust="spacing" textLength="69.3369" x="466.0812" y="525.862">Employee</text><line style="stroke:#181818;stroke-width:0.5;" x1="440.4982" x2="561.0011" y1="534.1637" y2="534.1637"/><text fill="#000000" font-family="sans-serif" font-size="14" lengthAdjust="spacing" textLength="17.8281" x="445.4982" y="551.1589">-id</text><text fill="#000000" font-family="sans-serif" font-size="14" lengthAdjust="spacing" textLength="44.7549" x="445.4982" y="567.4557">-name</text><text fill="#000000" font-family="sans-serif" font-size="14" lengthAdjust="spacing" textLength="110.0654" x="445.4982" y="583.7526">-postal_address</text><text fill="#000000" font-family="sans-serif" font-size="14" lengthAdjust="spacing" textLength="110.5029" x="445.4982" y="600.0495">-phone_number</text><text fill="#000000" font-family="sans-serif" font-size="14" lengthAdjust="spacing" textLength="43.6611" x="445.4982" y="616.3464">-email</text></g><!--class Nurse--><g class="entity" data-entity="Nurse" data-source-line="31" data-uid="ent0005" id="entity_Nurse"><rect fill="#F1F1F1" height="34.2969" rx="2.5" ry="2.5" style="stroke:#181818;stroke-width:0.5;" width="47.0088" x="897.2482" y="60.5969"/><text fill="#000000" font-family="sans-serif" font-size="14" lengthAdjust="spacing" textLength="41.0088" x="900.2482" y="78.592">Nurse</text><line style="stroke:#181818;stroke-width:0.5;" x1="898.2482" x2="943.257" y1="86.8937" y2="86.8937"/></g><!--class Receptionist--><g class="entity" data-entity="Receptionist" data-source-line="34" data-uid="ent0006" id="entity_Receptionist"><rect fill="#F1F1F1" height="34.2969" rx="2.5" ry="2.5" style="stroke:#181818;stroke-width:0.5;" width="93.0283" x="602.2382" y="331.3769"/><text fill="#000000" font-family="sans-serif" font-size="14" lengthAdjust="spacing" textLength="87.0283" x="605.2382" y="349.372">Receptionist</text><line style="stroke:#181818;stroke-width:0.5;" x1="603.2382" x2="694.2665" y1="357.6737" y2="357.6737"/></g><!--class Vaccination Center--><g class="entity" data-entity="Vaccination Center" data-source-line="37" data-uid="ent0007" id="entity_Vaccination Center"><rect fill="#F1F1F1" height="164.6719" rx="2.5" ry="2.5" style="stroke:#181818;stroke-width:0.5;" width="145.4785" x="946.0082" y="684.6469"/><text fill="#000000" font-family="sans-serif" font-size="14" lengthAdjust="spacing" textLength="133.2803" x="952.1073" y="702.642">Vaccination Center</text><line style="stroke:#181818;stroke-width:0.5;" x1="947.0082" x2="1090.4867" y1="710.9438" y2="710.9438"/><text fill="#000000" font-family="sans-serif" font-size="14" lengthAdjust="spacing" textLength="44.7549" x="952.0082" y="727.9389">-name</text><text fill="#000000" font-family="sans-serif" font-size="14" lengthAdjust="spacing" textLength="110.0654" x="952.0082" y="744.2357">-postal_address</text><text fill="#000000" font-family="sans-serif" font-size="14" lengthAdjust="spacing" textLength="110.5029" x="952.0082" y="760.5326">-phone_number</text><text fill="#000000" font-family="sans-serif" font-size="14" lengthAdjust="spacing" textLength="43.6611" x="952.0082" y="776.8295">-email</text><text fill="#000000" font-family="sans-serif" font-size="14" lengthAdjust="spacing" textLength="121.5977" x="952.0082" y="793.1264">-website_address</text><text fill="#000000" font-family="sans-serif" font-size="14" lengthAdjust="spacing" textLength="108.001" x="952.0082" y="809.4232">-opening_hours</text><text fill="#000000" font-family="sans-serif" font-size="14" lengthAdjust="spacing" textLength="100.5088" x="952.0082" y="825.7201">-closing_hours</text><text fill="#000000" font-family="sans-serif" font-size="14" lengthAdjust="spacing" textLength="133.4785" x="952.0082" y="842.017">-capacity_per_hour</text></g><!--class Healthcare Center--><g class="entity" data-entity="Healthcare Center" data-source-line="48" data-uid="ent0008" id="entity_Healthcare Center"><rect fill="#F1F1F1" height="34.2969" rx="2.5" ry="2.5" style="stroke:#181818;stroke-width:0.5;" width="134.1875" x="1039.6582" y="548.6069"/><text fill="#000000" font-family="sans-serif" font-size="14" lengthAdjust="spacing" textLength="128.1875" x="1042.6582" y="566.602">Healthcare Center</text><line style="stroke:#181818;stroke-width:0.5;" x1="1040.6582" x2="1172.8457" y1="574.9038" y2="574.9038"/></g><!--class Community Mass Vaccination Center--><g class="entity" data-entity="Community Mass Vaccination Center" data-source-line="52" data-uid="ent0009" id="entity_Community Mass Vaccination Center"><rect fill="#F1F1F1" height="34.2969" rx="2.5" ry="2.5" style="stroke:#181818;stroke-width:0.5;" width="264.4531" x="596.5182" y="548.6069"/><text fill="#000000" font-family="sans-serif" font-size="14" lengthAdjust="spacing" textLength="258.4531" x="599.5182" y="566.602">Community Mass Vaccination Center</text><line style="stroke:#181818;stroke-width:0.5;" x1="597.5182" x2="859.9713" y1="574.9038" y2="574.9038"/></g><!--class Vaccine--><g class="entity" data-entity="Vaccine" data-source-line="57" data-uid="ent0010" id="entity_Vaccine"><rect fill="#F1F1F1" height="66.8906" rx="2.5" ry="2.5" style="stroke:#181818;stroke-width:0.5;" width="145.7178" x="1517.8882" y="315.0869"/><text fill="#000000" font-family="sans-serif" font-size="14" lengthAdjust="spacing" textLength="54.9268" x="1563.2837" y="333.082">Vaccine</text><line style="stroke:#181818;stroke-width:0.5;" x1="1518.8882" x2="1662.6059" y1="341.3837" y2="341.3837"/><text fill="#000000" font-family="sans-serif" font-size="14" lengthAdjust="spacing" textLength="133.7178" x="1523.8882" y="358.3789">-commercial_name</text><text fill="#000000" font-family="sans-serif" font-size="14" lengthAdjust="spacing" textLength="46.0332" x="1523.8882" y="374.6757">-brand</text></g><!--class Vaccine Type--><g class="entity" data-entity="Vaccine Type" data-source-line="62" data-uid="ent0011" id="entity_Vaccine Type"><rect fill="#F1F1F1" height="83.1875" rx="2.5" ry="2.5" style="stroke:#181818;stroke-width:0.5;" width="137.8701" x="1462.8082" y="725.3869"/><text fill="#000000" font-family="sans-serif" font-size="14" lengthAdjust="spacing" textLength="93.7139" x="1484.8863" y="743.382">Vaccine Type</text><line style="stroke:#181818;stroke-width:0.5;" x1="1463.8082" x2="1599.6783" y1="751.6837" y2="751.6837"/><text fill="#000000" font-family="sans-serif" font-size="14" lengthAdjust="spacing" textLength="38.8145" x="1468.8082" y="768.6789">-code</text><text fill="#000000" font-family="sans-serif" font-size="14" lengthAdjust="spacing" textLength="58.2217" x="1468.8082" y="784.9757">-disease</text><text fill="#000000" font-family="sans-serif" font-size="14" lengthAdjust="spacing" textLength="125.8701" x="1468.8082" y="801.2726">-short_description</text></g><!--class Vaccine Technology--><g class="entity" data-entity="Vaccine Technology" data-source-line="68" data-uid="ent0012" id="entity_Vaccine Technology"><rect fill="#F1F1F1" height="50.5938" rx="2.5" ry="2.5" style="stroke:#181818;stroke-width:0.5;" width="146.1777" x="1741.6582" y="323.2269"/><text fill="#000000" font-family="sans-serif" font-size="14" lengthAdjust="spacing" textLength="140.1777" x="1744.6582" y="341.222">Vaccine Technology</text><line style="stroke:#181818;stroke-width:0.5;" x1="1742.6582" x2="1886.8359" y1="349.5237" y2="349.5237"/><text fill="#000000" font-family="sans-serif" font-size="14" lengthAdjust="spacing" textLength="44.7549" x="1747.6582" y="366.5189">-name</text></g><!--class Appointment--><g class="entity" data-entity="Appointment" data-source-line="72" data-uid="ent0013" id="entity_Appointment"><rect fill="#F1F1F1" height="99.4844" rx="2.5" ry="2.5" style="stroke:#181818;stroke-width:0.5;" width="96.7813" x="1034.3582" y="298.7869"/><text fill="#000000" font-family="sans-serif" font-size="14" lengthAdjust="spacing" textLength="90.7813" x="1037.3582" y="316.782">Appointment</text><line style="stroke:#181818;stroke-width:0.5;" x1="1035.3582" x2="1130.1394" y1="325.0838" y2="325.0838"/><text fill="#000000" font-family="sans-serif" font-size="14" lengthAdjust="spacing" textLength="17.8281" x="1040.3582" y="342.0789">-id</text><text fill="#000000" font-family="sans-serif" font-size="14" lengthAdjust="spacing" textLength="36.6201" x="1040.3582" y="358.3757">-date</text><text fill="#000000" font-family="sans-serif" font-size="14" lengthAdjust="spacing" textLength="36.6816" x="1040.3582" y="374.6726">-time</text><text fill="#000000" font-family="sans-serif" font-size="14" lengthAdjust="spacing" textLength="48.0703" x="1040.3582" y="390.9695">-status</text></g><!--class Vaccination Details--><g class="entity" data-entity="Vaccination Details" data-source-line="80" data-uid="ent0014" id="entity_Vaccination Details"><rect fill="#F1F1F1" height="66.8906" rx="2.5" ry="2.5" style="stroke:#181818;stroke-width:0.5;" width="140.6953" x="1298.3982" y="315.0869"/><text fill="#000000" font-family="sans-serif" font-size="14" lengthAdjust="spacing" textLength="134.6953" x="1301.3982" y="333.082">Vaccination Details</text><line style="stroke:#181818;stroke-width:0.5;" x1="1299.3982" x2="1438.0935" y1="341.3837" y2="341.3837"/><text fill="#000000" font-family="sans-serif" font-size="14" lengthAdjust="spacing" textLength="17.8281" x="1304.3982" y="358.3789">-id</text><text fill="#000000" font-family="sans-serif" font-size="14" lengthAdjust="spacing" textLength="84.6357" x="1304.3982" y="374.6757">-lot_number</text></g><!--class Adverse Reaction--><g class="entity" data-entity="Adverse Reaction" data-source-line="85" data-uid="ent0015" id="entity_Adverse Reaction"><rect fill="#F1F1F1" height="66.8906" rx="2.5" ry="2.5" style="stroke:#181818;stroke-width:0.5;" width="128.9102" x="1637.2882" y="733.5369"/><text fill="#000000" font-family="sans-serif" font-size="14" lengthAdjust="spacing" textLength="122.9102" x="1640.2882" y="751.532">Adverse Reaction</text><line style="stroke:#181818;stroke-width:0.5;" x1="1638.2882" x2="1765.1983" y1="759.8338" y2="759.8338"/><text fill="#000000" font-family="sans-serif" font-size="14" lengthAdjust="spacing" textLength="17.8281" x="1643.2882" y="776.8289">-id</text><text fill="#000000" font-family="sans-serif" font-size="14" lengthAdjust="spacing" textLength="82.8926" x="1643.2882" y="793.1257">-description</text></g><!--class Vaccination Certificate--><g class="entity" data-entity="Vaccination Certificate" data-source-line="90" data-uid="ent0016" id="entity_Vaccination Certificate"><rect fill="#F1F1F1" height="66.8906" rx="2.5" ry="2.5" style="stroke:#181818;stroke-width:0.5;" width="164.8809" x="1081.3082" y="44.2969"/><text fill="#000000" font-family="sans-serif" font-size="14" lengthAdjust="spacing" textLength="158.8809" x="1084.3082" y="62.292">Vaccination Certificate</text><line style="stroke:#181818;stroke-width:0.5;" x1="1082.3082" x2="1245.189" y1="70.5938" y2="70.5938"/><text fill="#000000" font-family="sans-serif" font-size="14" lengthAdjust="spacing" textLength="17.8281" x="1087.3082" y="87.5889">-id</text><text fill="#000000" font-family="sans-serif" font-size="14" lengthAdjust="spacing" textLength="79.584" x="1087.3082" y="103.8857">-issue_date</text></g><!--class PVMS--><g class="entity" data-entity="PVMS" data-source-line="96" data-uid="ent0017" id="entity_PVMS"><rect fill="#F1F1F1" height="34.2969" rx="2.5" ry="2.5" style="stroke:#181818;stroke-width:0.5;" width="44.9854" x="137.2582" y="749.8369"/><text fill="#000000" font-family="sans-serif" font-size="14" lengthAdjust="spacing" textLength="38.9854" x="140.2582" y="767.832">PVMS</text><line style="stroke:#181818;stroke-width:0.5;" x1="138.2582" x2="181.2435" y1="776.1338" y2="776.1338"/></g><!--link Nurse to Employee--><g class="link" data-entity-1="Nurse" data-entity-2="Employee" data-source-line="103" data-uid="lnk18" id="link_Nurse_Employee"><path codeLine="103" d="M914.6582,95.0669 C893.8982,148.9469 821.0782,323.8269 712.7482,430.8669 C663.8882,479.1369 636.3582,470.4569 578.7482,507.8669 C573.4082,511.3369 582.7315,504.7867 577.2815,508.5567" fill="none" id="Nurse-to-Employee" style="stroke:#181818;stroke-width:1;"/><polygon fill="none" points="562.4782,518.7969,580.6949,513.4912,573.8682,503.6223,562.4782,518.7969" style="stroke:#181818;stroke-width:1;"/></g><!--link Receptionist to Employee--><g class="link" data-entity-1="Receptionist" data-entity-2="Employee" data-source-line="104" data-uid="lnk19" id="link_Receptionist_Employee"><path codeLine="104" d="M637.3782,366.0569 C616.8682,395.8869 582.9885,445.166 550.4085,492.536" fill="none" id="Receptionist-to-Employee" style="stroke:#181818;stroke-width:1;"/><polygon fill="none" points="540.2082,507.3669,555.3521,495.9361,545.4649,489.1359,540.2082,507.3669" style="stroke:#181818;stroke-width:1;"/></g><!--link Healthcare Center to Vaccination Center--><g class="link" data-entity-1="Healthcare Center" data-entity-2="Vaccination Center" data-source-line="105" data-uid="lnk20" id="link_Healthcare Center_Vaccination Center"><path codeLine="105" d="M1099.3982,583.3969 C1089.5682,605.6569 1078.7236,630.2127 1062.1436,667.7327" fill="none" id="Healthcare Center-to-Vaccination Center" style="stroke:#181818;stroke-width:1;"/><polygon fill="none" points="1054.8682,684.1969,1067.6317,670.1579,1056.6556,665.3076,1054.8682,684.1969" style="stroke:#181818;stroke-width:1;"/></g><!--link Community Mass Vaccination Center to Vaccination Center--><g class="link" data-entity-1="Community Mass Vaccination Center" data-entity-2="Vaccination Center" data-source-line="106" data-uid="lnk21" id="link_Community Mass Vaccination Center_Vaccination Center"><path codeLine="106" d="M752.9782,583.3969 C794.8982,612.1969 867.7318,662.2346 930.9218,705.6446" fill="none" id="Community Mass Vaccination Center-to-Vaccination Center" style="stroke:#181818;stroke-width:1;"/><polygon fill="none" points="945.7582,715.8369,934.3192,700.6992,927.5244,710.5901,945.7582,715.8369" style="stroke:#181818;stroke-width:1;"/></g><!--link DGS Administrator to PVMS--><g class="link" data-entity-1="DGS Administrator" data-entity-2="PVMS" data-source-line="113" data-uid="lnk22" id="link_DGS Administrator_PVMS"><path codeLine="113" d="M891.5682,366.1769 C848.3782,384.0369 776.5682,412.3369 712.7482,430.8669 C553.5282,477.0769 478.3082,405.6769 347.7482,507.8669 C302.7382,543.0969 323.9782,576.4369 291.7482,623.6469 C257.3482,674.0169 205.6082,724.3169 178.2382,749.4569" fill="none" id="DGS Administrator-PVMS" style="stroke:#181818;stroke-width:1;"/><polygon fill="#000000" points="348.3437,568.1899,357.7025,566.4976,354.9204,561.3198,348.3437,568.1899" style="stroke:#000000;stroke-width:1;"/><text fill="#000000" font-family="sans-serif" font-size="13" lengthAdjust="spacing" textLength="59.8584" x="361.7482" y="570.3238">manages</text><text fill="#000000" font-family="sans-serif" font-size="13" lengthAdjust="spacing" textLength="8.271" x="870.9226" y="385.6515">1</text><text fill="#000000" font-family="sans-serif" font-size="13" lengthAdjust="spacing" textLength="8.271" x="174.7164" y="738.8791">1</text></g><!--link DGS Administrator to Employee--><g class="link" data-entity-1="DGS Administrator" data-entity-2="Employee" data-source-line="114" data-uid="lnk23" id="link_DGS Administrator_Employee"><path codeLine="114" d="M919.0482,365.8469 C897.8382,394.0269 850.0682,451.3269 794.7482,477.8669 C707.3582,519.7769 668.6082,471.5469 578.7482,507.8669 C573.1582,510.1269 567.5882,512.8769 562.1582,515.9269" fill="none" id="DGS Administrator-Employee" style="stroke:#181818;stroke-width:1;"/><polygon fill="#000000" points="822.1391,471.3715,831.6162,470.5744,829.3377,465.1561,822.1391,471.3715" style="stroke:#000000;stroke-width:1;"/><text fill="#000000" font-family="sans-serif" font-size="13" lengthAdjust="spacing" textLength="59.8584" x="835.7482" y="473.9338">manages</text><text fill="#000000" font-family="sans-serif" font-size="13" lengthAdjust="spacing" textLength="8.271" x="906.0856" y="385.8468">1</text><text fill="#000000" font-family="sans-serif" font-size="13" lengthAdjust="spacing" textLength="23.0356" x="570.1345" y="506.7305">0..*</text></g><!--link DGS Administrator to Vaccination Center--><g class="link" data-entity-1="DGS Administrator" data-entity-2="Vaccination Center" data-source-line="115" data-uid="lnk24" id="link_DGS Administrator_Vaccination Center"><path codeLine="115" d="M929.5282,365.9569 C926.7882,409.0969 922.2782,528.7769 947.7482,623.6469 C953.2282,644.0469 961.7682,664.9669 971.0582,684.2769" fill="none" id="DGS Administrator-Vaccination Center" style="stroke:#181818;stroke-width:1;"/><polygon fill="#000000" points="953.395,570.7813,955.1391,561.432,949.3106,562.1924,953.395,570.7813" style="stroke:#000000;stroke-width:1;"/><text fill="#000000" font-family="sans-serif" font-size="13" lengthAdjust="spacing" textLength="59.8584" x="961.7482" y="570.3238">manages</text><text fill="#000000" font-family="sans-serif" font-size="13" lengthAdjust="spacing" textLength="8.271" x="919.9697" y="385.6794">1</text><text fill="#000000" font-family="sans-serif" font-size="13" lengthAdjust="spacing" textLength="23.0356" x="942.9731" y="673.5974">0..*</text></g><!--link DGS Administrator to Vaccine--><g class="link" data-entity-1="DGS Administrator" data-entity-2="Vaccine" data-source-line="116" data-uid="lnk25" id="link_DGS Administrator_Vaccine"><path codeLine="116" d="M943.4782,331.1269 C958.6282,311.8469 985.7882,281.4669 1016.7482,266.1969 C1086.9182,231.5669 1112.7282,245.3169 1190.7482,239.3269 C1309.2282,230.2369 1344.9282,226.0069 1456.7482,266.1969 C1488.7382,277.6869 1521.3082,297.4769 1546.3282,314.7769" fill="none" id="DGS Administrator-Vaccine" style="stroke:#181818;stroke-width:1;"/><polygon fill="#000000" points="1200.7463,227.6277,1191.6249,224.9351,1191.7843,230.8108,1200.7463,227.6277" style="stroke:#000000;stroke-width:1;"/><text fill="#000000" font-family="sans-serif" font-size="13" lengthAdjust="spacing" textLength="59.8584" x="1204.7482" y="232.2638">manages</text><text fill="#000000" font-family="sans-serif" font-size="13" lengthAdjust="spacing" textLength="8.271" x="938.3027" y="320.2786">1</text><text fill="#000000" font-family="sans-serif" font-size="13" lengthAdjust="spacing" textLength="23.0356" x="1512.672" y="303.9921">0..*</text></g><!--link DGS Administrator to Vaccine Type--><g class="link" data-entity-1="DGS Administrator" data-entity-2="Vaccine Type" data-source-line="117" data-uid="lnk26" id="link_DGS Administrator_Vaccine Type"><path codeLine="117" d="M944.9182,365.9469 C960.9382,383.7469 988.4982,412.1069 1016.7482,430.8669 C1087.5482,477.8569 1131.4382,448.0069 1191.7482,507.8669 C1231.7882,547.5969 1204.5982,583.0269 1243.7482,623.6469 C1304.3182,686.4969 1398.4682,725.6969 1462.4982,746.6669" fill="none" id="DGS Administrator-Vaccine Type" style="stroke:#181818;stroke-width:1;"/><polygon fill="#000000" points="1252.7759,568.786,1247.2311,561.059,1243.7483,565.7938,1252.7759,568.786" style="stroke:#000000;stroke-width:1;"/><text fill="#000000" font-family="sans-serif" font-size="13" lengthAdjust="spacing" textLength="59.8584" x="1257.7482" y="570.3238">manages</text><text fill="#000000" font-family="sans-serif" font-size="13" lengthAdjust="spacing" textLength="8.271" x="940.0729" y="385.6663">1</text><text fill="#000000" font-family="sans-serif" font-size="13" lengthAdjust="spacing" textLength="23.0356" x="1431.8039" y="741.0891">0..*</text></g><!--link DGS Administrator to Vaccine Technology--><g class="link" data-entity-1="DGS Administrator" data-entity-2="Vaccine Technology" data-source-line="118" data-uid="lnk27" id="link_DGS Administrator_Vaccine Technology"><path codeLine="118" d="M943.0782,331.2069 C958.0582,311.6969 985.2482,280.8069 1016.7482,266.1969 C1119.7182,218.4069 1157.3882,245.3069 1270.7482,239.3269 C1453.1082,229.7169 1507.1382,209.5469 1680.7482,266.1969 C1718.6482,278.5569 1756.8982,303.5969 1782.7782,322.8369" fill="none" id="DGS Administrator-Vaccine Technology" style="stroke:#181818;stroke-width:1;"/><polygon fill="#000000" points="1280.7479,227.7134,1271.674,224.8648,1271.7326,230.7424,1280.7479,227.7134" style="stroke:#000000;stroke-width:1;"/><text fill="#000000" font-family="sans-serif" font-size="13" lengthAdjust="spacing" textLength="59.8584" x="1284.7482" y="232.2638">manages</text><text fill="#000000" font-family="sans-serif" font-size="13" lengthAdjust="spacing" textLength="8.271" x="948.3252" y="320.3841">1</text><text fill="#000000" font-family="sans-serif" font-size="13" lengthAdjust="spacing" textLength="23.0356" x="1749.7301" y="312.2447">0..*</text></g><!--link Nurse to PVMS--><g class="link" data-entity-1="Nurse" data-entity-2="PVMS" data-source-line="123" data-uid="lnk28" id="link_Nurse_PVMS"><path codeLine="123" d="M896.9782,78.8269 C754.0282,79.6269 14.7482,88.1969 14.7482,179.6969 C14.7482,179.6969 14.7482,179.6969 14.7482,566.7569 C14.7482,648.6769 95.8882,719.5169 136.7682,750.0169" fill="none" id="Nurse-PVMS" style="stroke:#181818;stroke-width:1;"/><polygon fill="#000000" points="16,351.9025,24.7256,348.1192,20.8354,343.7129,16,351.9025" style="stroke:#000000;stroke-width:1;"/><text fill="#000000" font-family="sans-serif" font-size="13" lengthAdjust="spacing" textLength="29.7832" x="28.7482" y="353.0938">uses</text><text fill="#000000" font-family="sans-serif" font-size="13" lengthAdjust="spacing" textLength="23.0356" x="866.2658" y="74.5043">0..*</text><text fill="#000000" font-family="sans-serif" font-size="13" lengthAdjust="spacing" textLength="8.271" x="120.8818" y="739.9157">1</text></g><!--link Receptionist to PVMS--><g class="link" data-entity-1="Receptionist" data-entity-2="PVMS" data-source-line="124" data-uid="lnk29" id="link_Receptionist_PVMS"><path codeLine="124" d="M618.1182,366.1569 C582.9982,384.5569 523.2482,413.8469 468.7482,430.8669 C367.8582,462.3669 304.6782,421.5069 243.7482,507.8669 C187.7782,587.1869 167.4982,705.9869 161.7082,749.3669" fill="none" id="Receptionist-PVMS" style="stroke:#181818;stroke-width:1;"/><polygon fill="#000000" points="244.9189,569.0384,253.7359,565.473,249.9563,560.9714,244.9189,569.0384" style="stroke:#000000;stroke-width:1;"/><text fill="#000000" font-family="sans-serif" font-size="13" lengthAdjust="spacing" textLength="29.7832" x="257.7482" y="570.3238">uses</text><text fill="#000000" font-family="sans-serif" font-size="13" lengthAdjust="spacing" textLength="23.0356" x="582.7465" y="385.6257">0..*</text><text fill="#000000" font-family="sans-serif" font-size="13" lengthAdjust="spacing" textLength="8.271" x="153.1241" y="738.7616">1</text></g><!--link SNS User to PVMS--><g class="link" data-entity-1="SNS User" data-entity-2="PVMS" data-source-line="125" data-uid="lnk30" id="link_SNS User_PVMS"><path codeLine="125" d="M288.2682,377.7869 C231.7082,402.3569 161.0882,444.1469 129.7482,507.8669 C88.8282,591.0569 132.9382,707.0069 151.9282,749.5269" fill="none" id="SNS User-PVMS" style="stroke:#181818;stroke-width:1;"/><polygon fill="#000000" points="133.0265,570.5175,138.9002,563.0375,133.3818,561.0136,133.0265,570.5175" style="stroke:#000000;stroke-width:1;"/><text fill="#000000" font-family="sans-serif" font-size="13" lengthAdjust="spacing" textLength="29.7832" x="143.7482" y="570.3238">uses</text><text fill="#000000" font-family="sans-serif" font-size="13" lengthAdjust="spacing" textLength="23.0356" x="257.5701" y="376.6608">0..*</text><text fill="#000000" font-family="sans-serif" font-size="13" lengthAdjust="spacing" textLength="8.271" x="140.2029" y="738.6594">1</text></g><!--link SNS User to Appointment--><g class="link" data-entity-1="SNS User" data-entity-2="Appointment" data-source-line="131" data-uid="lnk31" id="link_SNS User_Appointment"><path codeLine="131" d="M451.2082,310.8469 C490.6882,294.2769 539.2982,276.3169 584.7482,266.1969 C745.6882,230.3569 789.9782,245.3069 954.7482,239.3269 C990.2782,238.0469 1004.9782,219.8969 1034.7482,239.3269 C1054.9482,252.5169 1066.7082,276.3169 1073.5182,298.3369" fill="none" id="SNS User-Appointment" style="stroke:#181818;stroke-width:1;"/><polygon fill="#000000" points="964.7472,227.6628,955.6448,224.9062,955.763,230.7829,964.7472,227.6628" style="stroke:#000000;stroke-width:1;"/><text fill="#000000" font-family="sans-serif" font-size="13" lengthAdjust="spacing" textLength="65.0317" x="968.7482" y="232.2638">schedules</text><text fill="#000000" font-family="sans-serif" font-size="13" lengthAdjust="spacing" textLength="23.0356" x="458.9083" y="320.4195">1..*</text><text fill="#000000" font-family="sans-serif" font-size="13" lengthAdjust="spacing" textLength="23.0356" x="1047.7349" y="287.6603">0..*</text></g><!--link Receptionist to Appointment--><g class="link" data-entity-1="Receptionist" data-entity-2="Appointment" data-source-line="132" data-uid="lnk32" id="link_Receptionist_Appointment"><path codeLine="132" d="M650.2882,331.2069 C653.5782,305.9869 663.7282,259.9269 694.7482,239.3269 C723.6082,220.1669 890.9182,197.7369 1016.7482,266.1969 C1030.9082,273.8969 1043.1382,286.0369 1053.0782,298.6469" fill="none" id="Receptionist-Appointment" style="stroke:#181818;stroke-width:1;"/><polygon fill="#000000" points="704.7319,227.3604,695.4794,225.1598,695.953,231.0186,704.7319,227.3604" style="stroke:#000000;stroke-width:1;"/><text fill="#000000" font-family="sans-serif" font-size="13" lengthAdjust="spacing" textLength="43.7671" x="708.7482" y="232.2638">assists</text><text fill="#000000" font-family="sans-serif" font-size="13" lengthAdjust="spacing" textLength="23.0356" x="624.1178" y="320.3841">0..*</text><text fill="#000000" font-family="sans-serif" font-size="13" lengthAdjust="spacing" textLength="23.0356" x="1024.2911" y="287.6537">0..*</text></g><!--link Appointment to Vaccination Center--><g class="link" data-entity-1="Appointment" data-entity-2="Vaccination Center" data-source-line="133" data-uid="lnk33" id="link_Appointment_Vaccination Center"><path codeLine="133" d="M1121.9282,398.3569 C1132.7282,409.9469 1144.9982,421.6169 1157.7482,430.8669 C1224.2182,479.1069 1281.3882,438.7369 1325.7482,507.8669 C1353.5382,551.1769 1353.4482,580.2769 1325.7482,623.6469 C1274.5282,703.8569 1165.1882,739.5469 1091.8082,754.9469" fill="none" id="Appointment-Vaccination Center" style="stroke:#181818;stroke-width:1;"/><polygon fill="#000000" points="1351.3273,570.8055,1355.0171,562.0399,1349.1601,561.5452,1351.3273,570.8055" style="stroke:#000000;stroke-width:1;"/><text fill="#000000" font-family="sans-serif" font-size="13" lengthAdjust="spacing" textLength="59.8013" x="1360.7482" y="570.3238">occurs at</text><text fill="#000000" font-family="sans-serif" font-size="13" lengthAdjust="spacing" textLength="8.271" x="1128.0193" y="418.4948">1</text><text fill="#000000" font-family="sans-serif" font-size="13" lengthAdjust="spacing" textLength="8.271" x="1099.4072" y="750.0972">1</text></g><!--link Appointment to Vaccine Type--><g class="link" data-entity-1="Appointment" data-entity-2="Vaccine Type" data-source-line="134" data-uid="lnk34" id="link_Appointment_Vaccine Type"><path codeLine="134" d="M1119.0582,398.6669 C1130.2282,410.8169 1143.3982,422.6769 1157.7482,430.8669 C1266.4982,492.9169 1338.6682,420.8969 1428.7482,507.8669 C1490.5382,567.5169 1516.1982,668.9969 1526.0982,725.3069" fill="none" id="Appointment-Vaccine Type" style="stroke:#181818;stroke-width:1;"/><polygon fill="#000000" points="1507.6478,568.9526,1502.4327,560.9994,1498.7539,565.5837,1507.6478,568.9526" style="stroke:#000000;stroke-width:1;"/><text fill="#000000" font-family="sans-serif" font-size="13" lengthAdjust="spacing" textLength="17.875" x="1512.7482" y="570.3238">for</text><text fill="#000000" font-family="sans-serif" font-size="13" lengthAdjust="spacing" textLength="8.271" x="1115.418" y="418.4878">1</text><text fill="#000000" font-family="sans-serif" font-size="13" lengthAdjust="spacing" textLength="8.271" x="1516.5231" y="714.2404">1</text></g><!--link SNS User to Receptionist--><g class="link" data-entity-1="SNS User" data-entity-2="Receptionist" data-source-line="137" data-uid="lnk36" id="link_SNS User_Receptionist"><path codeLine="137" d="M451.1982,348.5269 C500.2482,348.5269 560.9682,348.5269 602.0382,348.5269" fill="none" id="SNS User-Receptionist" style="stroke:#181818;stroke-width:1;"/><polygon fill="#000000" points="468.0982,337.0933,477.1433,340.0322,477.1433,334.1544,468.0982,337.0933" style="stroke:#000000;stroke-width:1;"/><text fill="#000000" font-family="sans-serif" font-size="13" lengthAdjust="spacing" textLength="102.8638" x="482.0982" y="341.5938">registers arrival</text><text fill="#000000" font-family="sans-serif" font-size="13" lengthAdjust="spacing" textLength="23.0356" x="458.8974" y="361.2199">1..*</text><text fill="#000000" font-family="sans-serif" font-size="13" lengthAdjust="spacing" textLength="23.0356" x="571.218" y="361.6107">1..*</text></g><!--link Nurse to Vaccination Details--><g class="link" data-entity-1="Nurse" data-entity-2="Vaccination Details" data-source-line="138" data-uid="lnk37" id="link_Nurse_Vaccination Details"><path codeLine="138" d="M938.9782,95.1969 C963.9482,117.4269 1010.4882,157.8869 1052.7482,189.1969 C1083.4582,211.9369 1089.3982,221.6669 1124.7482,236.1969 C1186.4282,261.5269 1211.6982,237.2169 1271.7482,266.1969 C1296.4882,278.1269 1320.1982,297.7969 1337.9782,314.8069" fill="none" id="Nurse-Vaccination Details" style="stroke:#181818;stroke-width:1;"/><polygon fill="#000000" points="1062.1285,183.1742,1055.6215,176.2381,1052.7873,181.3875,1062.1285,183.1742" style="stroke:#000000;stroke-width:1;"/><text fill="#000000" font-family="sans-serif" font-size="13" lengthAdjust="spacing" textLength="48.8135" x="1066.7482" y="185.2638">records</text><text fill="#000000" font-family="sans-serif" font-size="13" lengthAdjust="spacing" textLength="23.0356" x="918.0433" y="114.9255">1..*</text><text fill="#000000" font-family="sans-serif" font-size="13" lengthAdjust="spacing" textLength="23.0356" x="1334.3087" y="304.0279">1..*</text></g><!--link Nurse to Adverse Reaction--><g class="link" data-entity-1="Nurse" data-entity-2="Adverse Reaction" data-source-line="139" data-uid="lnk38" id="link_Nurse_Adverse Reaction"><path codeLine="139" d="M918.7382,94.9269 C915.7582,126.9869 914.2182,198.7369 953.7482,236.1969 C1017.3982,296.4969 1079.6582,212.1969 1148.7482,266.1969 C1211.2782,315.0569 1155.8682,381.1869 1217.7482,430.8669 C1276.2182,477.7969 1310.8682,443.2869 1383.7482,460.8669 C1453.7282,477.7369 1481.4882,464.2469 1538.7482,507.8669 C1617.7982,568.0769 1668.4882,678.5569 1689.9582,733.3669" fill="none" id="Nurse-Adverse Reaction" style="stroke:#181818;stroke-width:1;"/><polygon fill="#000000" points="1226.5997,351.7817,1221.5063,343.75,1217.7581,348.2777,1226.5997,351.7817" style="stroke:#000000;stroke-width:1;"/><text fill="#000000" font-family="sans-serif" font-size="13" lengthAdjust="spacing" textLength="48.8135" x="1231.7482" y="353.0938">records</text><text fill="#000000" font-family="sans-serif" font-size="13" lengthAdjust="spacing" textLength="23.0356" x="891.4361" y="114.8822">1..*</text><text fill="#000000" font-family="sans-serif" font-size="13" lengthAdjust="spacing" textLength="23.0356" x="1662.3774" y="722.3523">0..*</text></g><!--link Nurse to Vaccination Certificate--><g class="link" data-entity-1="Nurse" data-entity-2="Vaccination Certificate" data-source-line="140" data-uid="lnk39" id="link_Nurse_Vaccination Certificate"><path codeLine="140" d="M944.4882,77.7469 C975.8982,77.7469 1032.8982,77.7469 1080.8982,77.7469" fill="none" id="Nurse-Vaccination Certificate" style="stroke:#181818;stroke-width:1;"/><polygon fill="#000000" points="971.2782,66.3133,962.2331,63.3744,962.2331,69.2522,971.2782,66.3133" style="stroke:#000000;stroke-width:1;"/><text fill="#000000" font-family="sans-serif" font-size="13" lengthAdjust="spacing" textLength="88.6641" x="975.2782" y="70.8138">issues on-site</text><text fill="#000000" font-family="sans-serif" font-size="13" lengthAdjust="spacing" textLength="23.0356" x="952.1999" y="91.4693">1..*</text><text fill="#000000" font-family="sans-serif" font-size="13" lengthAdjust="spacing" textLength="23.0356" x="1050.381" y="90.4171">0..*</text></g><!--link Appointment to Vaccination Details--><g class="link" data-entity-1="Appointment" data-entity-2="Vaccination Details" data-source-line="143" data-uid="lnk41" id="link_Appointment_Vaccination Details"><path codeLine="143" d="M1091.7482,298.3569 C1098.4582,276.3369 1110.1082,252.5369 1130.2482,239.3269 C1149.9482,226.4169 1159.9482,235.8769 1183.2482,239.3269 C1223.9082,245.3669 1235.6582,246.5169 1271.7482,266.1969 C1295.2182,278.9869 1318.1682,298.0869 1335.8482,314.6569" fill="none" id="Appointment-Vaccination Details" style="stroke:#181818;stroke-width:1;"/><polygon fill="#000000" points="1130.2593,227.4301,1139.0885,230.9652,1139.4801,225.1004,1130.2593,227.4301" style="stroke:#000000;stroke-width:1;"/><text fill="#000000" font-family="sans-serif" font-size="13" lengthAdjust="spacing" textLength="38.6128" x="1144.2482" y="232.2638">fulfills</text><text fill="#000000" font-family="sans-serif" font-size="13" lengthAdjust="spacing" textLength="8.271" x="1084.4382" y="287.683">1</text><text fill="#000000" font-family="sans-serif" font-size="13" lengthAdjust="spacing" textLength="8.271" x="1321.0701" y="304.1074">1</text></g><!--link Vaccination Details to Vaccine--><g class="link" data-entity-1="Vaccination Details" data-entity-2="Vaccine" data-source-line="144" data-uid="lnk42" id="link_Vaccination Details_Vaccine"><path codeLine="144" d="M1439.2982,348.5269 C1464.3082,348.5269 1492.4882,348.5269 1517.7082,348.5269" fill="none" id="Vaccination Details-Vaccine" style="stroke:#181818;stroke-width:1;"/><polygon fill="#000000" points="1466.4882,337.0933,1457.4431,334.1544,1457.4431,340.0322,1466.4882,337.0933" style="stroke:#000000;stroke-width:1;"/><text fill="#000000" font-family="sans-serif" font-size="13" lengthAdjust="spacing" textLength="29.7832" x="1470.4882" y="341.5938">uses</text><text fill="#000000" font-family="sans-serif" font-size="13" lengthAdjust="spacing" textLength="8.271" x="1447.0004" y="344.8266">1</text><text fill="#000000" font-family="sans-serif" font-size="13" lengthAdjust="spacing" textLength="8.271" x="1501.7775" y="344.8266">1</text></g><!--link Vaccination Details to Adverse Reaction--><g class="link" data-entity-1="Vaccination Details" data-entity-2="Adverse Reaction" data-source-line="145" data-uid="lnk43" id="link_Vaccination Details_Adverse Reaction"><path codeLine="145" d="M1414.2082,382.3769 C1438.8282,398.8869 1470.3582,418.0669 1500.7482,430.8669 C1551.4082,452.1969 1578.3182,425.9169 1620.7482,460.8669 C1703.0282,528.6369 1707.0382,669.5569 1704.2182,733.3469" fill="none" id="Vaccination Details-Adverse Reaction" style="stroke:#181818;stroke-width:1;"/><polygon fill="#000000" points="1706.9331,569.6777,1703.4371,560.833,1698.906,564.5771,1706.9331,569.6777" style="stroke:#000000;stroke-width:1;"/><text fill="#000000" font-family="sans-serif" font-size="13" lengthAdjust="spacing" textLength="59.8203" x="1712.7482" y="570.3238">results in</text><text fill="#000000" font-family="sans-serif" font-size="13" lengthAdjust="spacing" textLength="8.271" x="1413.8778" y="402.0789">1</text><text fill="#000000" font-family="sans-serif" font-size="13" lengthAdjust="spacing" textLength="24.8066" x="1707.0543" y="722.585">0..1</text></g><!--link Vaccination Details to Vaccination Certificate--><g class="link" data-entity-1="Vaccination Details" data-entity-2="Vaccination Certificate" data-source-line="146" data-uid="lnk44" id="link_Vaccination Details_Vaccination Certificate"><path codeLine="146" d="M1369.2482,314.6669 C1368.2282,287.2869 1363.3682,248.2169 1345.7482,219.1969 C1317.4882,172.6169 1267.6182,135.7769 1227.2182,111.5369" fill="none" id="Vaccination Details-Vaccination Certificate" style="stroke:#181818;stroke-width:1;"/><polygon fill="#000000" points="1325.883,176.6656,1328.6576,185.7625,1333.4747,182.3943,1325.883,176.6656" style="stroke:#000000;stroke-width:1;"/><text fill="#000000" font-family="sans-serif" font-size="13" lengthAdjust="spacing" textLength="65.6665" x="1337.7482" y="185.2638">generates</text><text fill="#000000" font-family="sans-serif" font-size="13" lengthAdjust="spacing" textLength="8.271" x="1360.6283" y="304.1193">1</text><text fill="#000000" font-family="sans-serif" font-size="13" lengthAdjust="spacing" textLength="24.8066" x="1212.7822" y="131.2297">0..1</text></g><!--link Vaccination Certificate to SNS User--><g class="link" data-entity-1="Vaccination Certificate" data-entity-2="SNS User" data-source-line="148" data-uid="lnk46" id="link_Vaccination Certificate_SNS User"><path codeLine="148" d="M1156.8382,111.2169 C1150.4482,134.9569 1138.9682,166.7969 1119.7482,189.1969 C1092.8882,220.4869 1079.1582,224.0669 1039.7482,236.1969 C846.0482,295.7969 782.7982,223.1969 584.7482,266.1969 C539.3182,276.0569 490.7082,293.7869 451.2182,310.1769" fill="none" id="Vaccination Certificate-SNS User" style="stroke:#181818;stroke-width:1;"/><polygon fill="#000000" points="1142.5605,179.4064,1133.0573,179.0324,1134.6525,184.6897,1142.5605,179.4064" style="stroke:#000000;stroke-width:1;"/><text fill="#000000" font-family="sans-serif" font-size="13" lengthAdjust="spacing" textLength="47.8931" x="1146.7482" y="185.2638">obtains</text><text fill="#000000" font-family="sans-serif" font-size="13" lengthAdjust="spacing" textLength="23.0356" x="1130.2171" y="131.3637">0..*</text><text fill="#000000" font-family="sans-serif" font-size="13" lengthAdjust="spacing" textLength="23.0356" x="458.9191" y="303.4518">1..*</text></g><!--link Vaccine to Vaccine Type--><g class="link" data-entity-1="Vaccine" data-entity-2="Vaccine Type" data-source-line="151" data-uid="lnk47" id="link_Vaccine_Vaccine Type"><path codeLine="151" d="M1640.5882,382.3269 C1693.3282,418.2569 1771.0982,475.1069 1786.7482,507.8669 C1808.9282,554.2969 1816.2382,581.4769 1786.7482,623.6469 C1741.4582,688.3969 1687.1882,643.4669 1619.7482,684.6469 C1601.6382,695.7069 1583.9882,710.8569 1569.3082,725.0969" fill="none" id="Vaccine-Vaccine Type" style="stroke:#181818;stroke-width:1;"/><polygon fill="#000000" points="1809.7302,570.7186,1814.4491,562.4613,1808.6944,561.2646,1809.7302,570.7186" style="stroke:#000000;stroke-width:1;"/><text fill="#000000" font-family="sans-serif" font-size="13" lengthAdjust="spacing" textLength="22.9785" x="1819.7482" y="570.3238">has</text><text fill="#000000" font-family="sans-serif" font-size="13" lengthAdjust="spacing" textLength="23.0356" x="1624.6606" y="402.0197">1..*</text><text fill="#000000" font-family="sans-serif" font-size="13" lengthAdjust="spacing" textLength="8.271" x="1566.6792" y="714.3038">1</text></g><!--link Vaccine to Vaccine Technology--><g class="link" data-entity-1="Vaccine" data-entity-2="Vaccine Technology" data-source-line="152" data-uid="lnk48" id="link_Vaccine_Vaccine Technology"><path codeLine="152" d="M1664.0982,348.5269 C1688.8482,348.5269 1716.4682,348.5269 1741.2382,348.5269" fill="none" id="Vaccine-Vaccine Technology" style="stroke:#181818;stroke-width:1;"/><polygon fill="#000000" points="1690.6382,337.0933,1681.5931,334.1544,1681.5931,340.0322,1690.6382,337.0933" style="stroke:#000000;stroke-width:1;"/><text fill="#000000" font-family="sans-serif" font-size="13" lengthAdjust="spacing" textLength="29.7832" x="1694.6382" y="341.5938">uses</text><text fill="#000000" font-family="sans-serif" font-size="13" lengthAdjust="spacing" textLength="23.0356" x="1671.6568" y="361.2672">1..*</text><text fill="#000000" font-family="sans-serif" font-size="13" lengthAdjust="spacing" textLength="8.271" x="1725.259" y="344.8275">1</text></g><!--SRC=[fLLBRjim4Dth58GtQGiuQRPU532IDEcYHH4ttHeqERQ8KgJ0eVBfvpHTv0GzGIxM8Id9aYsrRheoHSqRltdpPdIKUr_YxEIarDpugj37mXOdGdF4gLHyutYHPLvv3UmiNBBpvXA_A5DoEh8OFVVUgLNbuPsmPg6-0dkTvKe24ye93UbSWC-jn2oB43OvlromkIoKKUWTzzPDsBViH_jwyM71RX3YBMDJXWQNfYfMuEAZuGN4mqevdoybz-aHuJx-bXOzrqikfGF4T9LR0zqSK72buqaeJwpDKd0dcuYMoaLHQli0K1DHia_Wy7zgCtwe74AtsciGK7fbWnOz5Jvp8PJXuHKx0-EtUZpZ_yFf3bQeFFJ2RGb6cSqojyGhwQ4jxjpmafDA3yiINBpkaBm2hdrEsa67O-VzcIsAoX2OlG_FmpM5-1gG0XgzoPC5EA6enctJ7JToJoPWdnvAcBGucOAbGk1OsoEtpYybe70g2ZwK14HkhBQRXvxMRU2yBAqolY3gVKkq9lIgvacTyHLsIkirz1myjGKd_IpQ-ZqBJkRo5e9dhe6BWDt1_AcWHcZdrLe9ehY3LOWLf07Qylpu-VqY6J7BZjXqEcLNG9e_FN8CJrcMB3oTVd_JpaVMSt7_rP17OiIGmxD373EERYbV0lgddvRKOHV6Ayb99lOYxfoNgOfiQ0jDJYcxj7U6KeHpq6B62cxuXl1lnZ5ERN8VGA-FZrzDsk9dx1dWeSgUGw8szUpv5Egf-hyCsv7gvcaQTUELLb_vqsFibcKBIaihg-kqEkD-NogCgNhU-rjmv-Fojz26uZNemEyNNHB1ZyuAsfusCJnYymqOoSD6iBtafodvZYoT1J9ZA7AGbHuluazW6WuA3T3kKjeryB2Nh12aBEF-C7HhWxLrGPSZzbPNzvOP6rCwkyE-Bbt3Ef9FZrjjPip19hGvK71EtN9DMUjUxyfskZyIpUuCUOHr4iVHjHVtLkZXqB55EalB4varq_1LJRfqhKARvpQu0hFXpH_5RZNQwUwwqckbTNJiE7ghKcVQ6wEFmveEKucdO-fWfSbSolnJfd6nQ4Ze8-BJN0sCILKUfBbTqRyRJ6AVmvgsKBqv80X08CmQp-vRQT_GEG-v3aDqzrZI-3S0]--></g></svg>