<svg xmlns="http://www.w3.org/2000/svg" xmlns:xlink="http://www.w3.org/1999/xlink" contentStyleType="text/css" data-diagram-type="DESCRIPTION" height="260px" preserveAspectRatio="none" style="width:1625px;height:260px;background:#FFFFFF;" version="1.1" viewBox="0 0 1625 260" width="1625px" zoomAndPan="magnify"><title>Use Case Diagram</title><defs/><g><g class="title" data-source-line="3"><text fill="#000000" font-family="sans-serif" font-size="14" font-weight="bold" lengthAdjust="spacing" textLength="143.3223" x="733.8693" y="22.9951">Use Case Diagram</text></g><!--entity Admin--><g class="entity" data-entity="Admin" data-source-line="6" data-uid="ent0002" id="entity_Admin"><ellipse cx="736.305" cy="51.2969" fill="#F1F1F1" rx="8" ry="8" style="stroke:#181818;stroke-width:0.5;"/><path d="M736.305,59.2969 L736.305,86.2969 M723.305,67.2969 L749.305,67.2969 M736.305,86.2969 L723.305,101.2969 M736.305,86.2969 L749.305,101.2969" fill="none" style="stroke:#181818;stroke-width:0.5;"/><text fill="#000000" font-family="sans-serif" font-size="14" lengthAdjust="spacing" textLength="79.8301" x="696.39" y="115.792">Admin DGS</text></g><!--entity Nurse--><g class="entity" data-entity="Nurse" data-source-line="7" data-uid="ent0003" id="entity_Nurse"><ellipse cx="1262.3044" cy="51.2969" fill="#F1F1F1" rx="8" ry="8" style="stroke:#181818;stroke-width:0.5;"/><path d="M1262.3044,59.2969 L1262.3044,86.2969 M1249.3044,67.2969 L1275.3044,67.2969 M1262.3044,86.2969 L1249.3044,101.2969 M1262.3044,86.2969 L1275.3044,101.2969" fill="none" style="stroke:#181818;stroke-width:0.5;"/><text fill="#000000" font-family="sans-serif" font-size="14" lengthAdjust="spacing" textLength="41.0088" x="1241.8" y="115.792">Nurse</text></g><!--entity Receptionist--><g class="entity" data-entity="Receptionist" data-source-line="8" data-uid="ent0004" id="entity_Receptionist"><ellipse cx="297.3042" cy="51.2969" fill="#F1F1F1" rx="8" ry="8" style="stroke:#181818;stroke-width:0.5;"/><path d="M297.3042,59.2969 L297.3042,86.2969 M284.3042,67.2969 L310.3042,67.2969 M297.3042,86.2969 L284.3042,101.2969 M297.3042,86.2969 L310.3042,101.2969" fill="none" style="stroke:#181818;stroke-width:0.5;"/><text fill="#000000" font-family="sans-serif" font-size="14" lengthAdjust="spacing" textLength="87.0283" x="253.79" y="115.792">Receptionist</text></g><!--entity User--><g class="entity" data-entity="User" data-source-line="9" data-uid="ent0005" id="entity_User"><ellipse cx="38.3032" cy="187.5869" fill="#F1F1F1" rx="8" ry="8" style="stroke:#181818;stroke-width:0.5;"/><path d="M38.3032,195.5869 L38.3032,222.5869 M25.3032,203.5869 L51.3032,203.5869 M38.3032,222.5869 L25.3032,237.5869 M38.3032,222.5869 L51.3032,237.5869" fill="none" style="stroke:#181818;stroke-width:0.5;"/><text fill="#000000" font-family="sans-serif" font-size="14" lengthAdjust="spacing" textLength="64.6064" x="6" y="252.082">SNS User</text></g><!--entity Schedule--><g class="entity" data-entity="Schedule" data-source-line="13" data-uid="ent0006" id="entity_Schedule"><ellipse cx="198.3031" cy="217.2335" fill="#F1F1F1" rx="92.5831" ry="20.9166" style="stroke:#181818;stroke-width:0.5;"/><text fill="#000000" font-family="sans-serif" font-size="14" lengthAdjust="spacing" textLength="159.5645" x="118.5209" y="221.8819">Schedule Appointment</text></g><!--entity RegisterArrival--><g class="entity" data-entity="RegisterArrival" data-source-line="14" data-uid="ent0007" id="entity_RegisterArrival"><ellipse cx="396.2962" cy="217.2321" fill="#F1F1F1" rx="70.8262" ry="16.5652" style="stroke:#181818;stroke-width:0.5;"/><text fill="#000000" font-family="sans-serif" font-size="14" lengthAdjust="spacing" textLength="108.4521" x="342.0701" y="221.8806">Register Arrival</text></g><!--entity Vaccinate--><g class="entity" data-entity="Vaccinate" data-source-line="15" data-uid="ent0008" id="entity_Vaccinate"><ellipse cx="1045.304" cy="217.2397" fill="#F1F1F1" rx="81.964" ry="18.7928" style="stroke:#181818;stroke-width:0.5;"/><text fill="#000000" font-family="sans-serif" font-size="14" lengthAdjust="spacing" textLength="135.2832" x="977.6624" y="221.8881">Administer Vaccine</text></g><!--entity RecordReaction--><g class="entity" data-entity="RecordReaction" data-source-line="16" data-uid="ent0009" id="entity_RecordReaction"><ellipse cx="1262.2991" cy="217.2367" fill="#F1F1F1" rx="100.2491" ry="22.4498" style="stroke:#181818;stroke-width:0.5;"/><text fill="#000000" font-family="sans-serif" font-size="14" lengthAdjust="spacing" textLength="176.6064" x="1173.9959" y="221.8851">Record Adverse Reaction</text></g><!--entity IssueCertificate--><g class="entity" data-entity="IssueCertificate" data-source-line="17" data-uid="ent0010" id="entity_IssueCertificate"><ellipse cx="1508.2955" cy="217.24" fill="#F1F1F1" rx="110.7655" ry="24.5531" style="stroke:#181818;stroke-width:0.5;"/><text fill="#000000" font-family="sans-serif" font-size="14" lengthAdjust="spacing" textLength="199.5342" x="1408.5284" y="221.8884">Issue Vaccination Certificate</text></g><!--entity ManageCenters--><g class="entity" data-entity="ManageCenters" data-source-line="18" data-uid="ent0011" id="entity_ManageCenters"><ellipse cx="621.3024" cy="217.2393" fill="#F1F1F1" rx="119.6624" ry="26.3325" style="stroke:#181818;stroke-width:0.5;"/><text fill="#000000" font-family="sans-serif" font-size="14" lengthAdjust="spacing" textLength="218.6338" x="511.9855" y="221.8878">Manage Centers and Personnel</text></g><!--entity ManageVaccines--><g class="entity" data-entity="ManageVaccines" data-source-line="19" data-uid="ent0012" id="entity_ManageVaccines"><ellipse cx="852.3018" cy="217.2412" fill="#F1F1F1" rx="76.4718" ry="17.6944" style="stroke:#181818;stroke-width:0.5;"/><text fill="#000000" font-family="sans-serif" font-size="14" lengthAdjust="spacing" textLength="122.2813" x="791.1612" y="221.8897">Manage Vaccines</text></g><!--link User to Schedule--><g class="link" data-entity-1="User" data-entity-2="Schedule" data-source-line="22" data-uid="lnk13" id="link_User_Schedule"><path d="M70.8,217.2369 C82.42,217.2369 88.05,217.2369 99.67,217.2369" fill="none" id="User-to-Schedule" style="stroke:#181818;stroke-width:1;"/><polygon fill="#181818" points="105.67,217.2369,96.67,213.2369,100.67,217.2369,96.67,221.2369,105.67,217.2369" style="stroke:#181818;stroke-width:1;"/></g><!--link Receptionist to RegisterArrival--><g class="link" data-entity-1="Receptionist" data-entity-2="RegisterArrival" data-source-line="24" data-uid="lnk14" id="link_Receptionist_RegisterArrival"><path d="M324.88,119.3469 C344.56,146.0469 366.4803,175.7769 381.0803,195.5869" fill="none" id="Receptionist-to-RegisterArrival" style="stroke:#181818;stroke-width:1;"/><polygon fill="#181818" points="384.64,200.4169,382.5204,190.7988,381.6736,196.3919,376.0805,195.5451,384.64,200.4169" style="stroke:#181818;stroke-width:1;"/></g><!--link Receptionist to Schedule--><g class="link" data-entity-1="Receptionist" data-entity-2="Schedule" data-source-line="25" data-uid="lnk15" id="link_Receptionist_Schedule"><path d="M269.73,119.3469 C251.3,144.3369 231.3594,171.3867 216.4594,191.6067" fill="none" id="Receptionist-to-Schedule" style="stroke:#181818;stroke-width:1;"/><polygon fill="#181818" points="212.9,196.4369,221.4592,191.5645,215.8661,192.4117,215.0189,186.8186,212.9,196.4369" style="stroke:#181818;stroke-width:1;"/></g><!--link Nurse to Vaccinate--><g class="link" data-entity-1="Nurse" data-entity-2="Vaccinate" data-source-line="27" data-uid="lnk16" id="link_Nurse_Vaccinate"><path d="M1241.5,94.8169 C1202.14,119.1769 1121.9121,168.8296 1077.8921,196.0696" fill="none" id="Nurse-to-Vaccinate" style="stroke:#181818;stroke-width:1;"/><polygon fill="#181818" points="1072.79,199.2269,1082.548,197.8924,1077.0418,196.5958,1078.3384,191.0896,1072.79,199.2269" style="stroke:#181818;stroke-width:1;"/></g><!--link Nurse to RecordReaction--><g class="link" data-entity-1="Nurse" data-entity-2="RecordReaction" data-source-line="28" data-uid="lnk17" id="link_Nurse_RecordReaction"><path d="M1262.3,119.3469 C1262.3,143.5669 1262.3,168.2469 1262.3,188.5169" fill="none" id="Nurse-to-RecordReaction" style="stroke:#181818;stroke-width:1;"/><polygon fill="#181818" points="1262.3,194.5169,1266.3,185.5169,1262.3,189.5169,1258.3,185.5169,1262.3,194.5169" style="stroke:#181818;stroke-width:1;"/></g><!--link Nurse to IssueCertificate--><g class="link" data-entity-1="Nurse" data-entity-2="IssueCertificate" data-source-line="29" data-uid="lnk18" id="link_Nurse_IssueCertificate"><path d="M1283.28,93.3869 C1324.06,115.6569 1409.4136,162.252 1462.3736,191.162" fill="none" id="Nurse-to-IssueCertificate" style="stroke:#181818;stroke-width:1;"/><polygon fill="#181818" points="1467.64,194.0369,1461.6569,186.2136,1463.2513,191.6412,1457.8238,193.2355,1467.64,194.0369" style="stroke:#181818;stroke-width:1;"/></g><!--link Admin to ManageCenters--><g class="link" data-entity-1="Admin" data-entity-2="ManageCenters" data-source-line="31" data-uid="lnk19" id="link_Admin_ManageCenters"><path d="M704.27,119.3469 C684.73,142.1669 664.1725,166.1694 646.8925,186.3494" fill="none" id="Admin-to-ManageCenters" style="stroke:#181818;stroke-width:1;"/><polygon fill="#181818" points="642.99,190.9069,651.8821,186.6724,646.2421,187.109,645.8055,181.469,642.99,190.9069" style="stroke:#181818;stroke-width:1;"/></g><!--link Admin to ManageVaccines--><g class="link" data-entity-1="Admin" data-entity-2="ManageVaccines" data-source-line="32" data-uid="lnk20" id="link_Admin_ManageVaccines"><path d="M768.62,119.3469 C791.41,145.7369 816.9076,175.2665 834.1076,195.1765" fill="none" id="Admin-to-ManageVaccines" style="stroke:#181818;stroke-width:1;"/><polygon fill="#181818" points="838.03,199.7169,835.1734,190.2914,834.7614,195.9332,829.1195,195.5212,838.03,199.7169" style="stroke:#181818;stroke-width:1;"/></g><!--SRC=[PP8nRuGm38Lt_mflvGRApb09tKbLXvwgG-rk1PUB104buNv_dGHeT2meVE_PiH-ytBsVNLrLyq36B-FmggQnMXoNYkJHQUejZG1U-u7nsp6UXUDbur0ttQWDNjxR6ibXV8FwkbZ74SGJr3TMF7iz6Uryv3c0khsseRcDKZX8PoXQTUTkaNkRUPwqyICRVmgENJb1SUDUMh35nbhze24PDhf1AE9aoVb3Icd3oPbUoATUQhATBF5WcLfc91L6t5e6SMTGV3YtC6xrml3CrkjVhKAtM1CjEONYampr4gFi8fSWcGw_v30Pm-lioR4Q_YlMgLrksfd45MB3yYqF1_AKiGpY8PYZ9QkFNo_HBAUCFeUIISVT8VqhKNrQyg3ic_q1]--></g></svg>